:version 1.10
:name ASF
:units
  mass 1
  length 1
  angle deg
:documentation
  ASF file generated by Kaydara
:root
  axis xyz
  order  tx ty tz rx ry rz
  position 0 0 0
  orientation 0 0 0
:bonedata
  begin
    id 1
    name RightUpLegDummy
    direction -0.718183 -0.695806 0.00816078
    length 4.904
    axis 0 0 0 xyz
  end
  begin
    id 2
    name RightUpLeg
    direction 3.53373e-006 -0.995788 0.0916898
    length 17.4976
    axis -3.49089 -0.000906625 0.000286804 xyz
    dof rx ry rz
  end
  begin
    id 3
    name RightLeg
    direction 0.00371092 -0.995096 -0.0988419
    length 16.5821
    axis 3.68512 0.0193738 -0.131023 xyz
    dof rx ry rz
  end
  begin
    id 4
    name RightFoot
    direction 0.00079151 -0.46099 0.887405
    length 3.77069
    axis 4.81691e-005 -0.120479 -0.188788 xyz
    dof rx ry rz
  end
  begin
    id 5
    name RightToes
    direction 0.00124746 -0.014064 0.9999
    length 3.85082
    axis 0.000481921 0.542163 -0.142578 xyz
    dof rx ry rz
  end
  begin
    id 6
    name SpineDummy
    direction 8.3039e-015 1 4.57515e-016
    length 4.6813
    axis 0 0 0 xyz
  end
  begin
    id 7
    name Spine
    direction -3.15643e-008 0.999988 0.00495137
    length 10.1015
    axis -0.001389 0.000121418 2.40972e-006 xyz
    dof rx ry rz
  end
  begin
    id 8
    name Spine1
    direction 0 0 0
    length 0
    axis -0.001389 0.000121451 1.30017e-006 xyz
    dof rx ry rz
  end
  begin
    id 9
    name HEadDummy
    direction -1.99912e-008 0.999999 0.00127422
    length 3.43865
    axis -0.001389 0.000121451 1.30017e-006 xyz
  end
  begin
    id 10
    name HEad
    direction -0.0222688 0.980941 0.193023
    length 5.12695
    axis -0.001389 0.000121451 1.30017e-006 xyz
    dof rx ry rz
  end
  begin
    id 11
    name LeftShoulder1Dummy
    direction 0.998891 -0.0402509 -0.0244456
    length 3.5433
    axis -0.001389 0.000121451 1.30017e-006 xyz
  end
  begin
    id 12
    name LeftShoulder1
    direction 0.99951 -0.000327763 0.0313091
    length 4.05031
    axis -0.001389 0.000121451 1.30017e-006 xyz
    dof rx ry rz
  end
  begin
    id 13
    name LeftArm
    direction 0.998561 -0.00100056 -0.0536182
    length 10.3537
    axis -23.1894 0.134784 0.967509 xyz
    dof rx ry rz
  end
  begin
    id 14
    name LeftForeArm
    direction 0.998903 0.00866432 0.046012
    length 8.70632
    axis -9.91835 -0.06569 -0.177794 xyz
    dof rx ry rz
  end
  begin
    id 15
    name LeftHand
    direction 0.992938 -0.0411637 0.11126
    length 5.32135
    axis -0.00960232 -0.00340091 0.185173 xyz
    dof rx ry rz
  end
  begin
    id 16
    name RightShoulderDummy
    direction -0.998891 -0.0402509 -0.0244414
    length 3.5433
    axis -0.001389 0.000121451 1.30017e-006 xyz
  end
  begin
    id 17
    name RightShoulder
    direction -0.99951 -0.000327807 0.0313133
    length 4.05031
    axis 0.215806 0.000203643 -0.0068026 xyz
    dof rx ry rz
  end
  begin
    id 18
    name RightArm
    direction -0.998573 -0.000999564 -0.053403
    length 10.3947
    axis -23.2009 -0.134239 -0.964101 xyz
    dof rx ry rz
  end
  begin
    id 19
    name RightForeArm
    direction -0.998898 0.00868028 0.0461306
    length 8.68355
    axis -9.92322 0.0658061 0.178868 xyz
    dof rx ry rz
  end
  begin
    id 20
    name RightHand
    direction -0.992843 -0.0414603 0.112003
    length 5.28593
    axis -0.00960638 0.00330671 -0.185228 xyz
    dof rx ry rz
  end
  begin
    id 21
    name LeftUpLegDummy
    direction 0.718183 -0.695806 0.00816078
    length 4.904
    axis 0 0 0 xyz
  end
  begin
    id 22
    name LeftUpLeg
    direction -6.81752e-006 -0.995793 0.0916337
    length 17.4976
    axis -3.48766 0.00143442 -0.000524262 xyz
    dof rx ry rz
  end
  begin
    id 23
    name LeftLeg
    direction -0.00601358 -0.995091 -0.0987824
    length 16.5821
    axis 3.68178 -0.00654042 -0.000285133 xyz
    dof rx ry rz
  end
  begin
    id 24
    name LeftFoot
    direction -0.00417578 -0.460984 0.887399
    length 3.77069
    axis 1.87233e-006 4.66016e-005 -8.6538e-006 xyz
    dof rx ry rz
  end
  begin
    id 25
    name LeftToes
    direction 0.00818058 -0.00485161 0.999955
    length 3.85048
    axis 1.06247e-005 4.65869e-005 -8.65513e-006 xyz
    dof rx ry rz
  end
:hierarchy
  begin
    root RightUpLegDummy SpineDummy LeftUpLegDummy
    RightUpLegDummy RightUpLeg
    RightUpLeg RightLeg
    RightLeg RightFoot
    RightFoot RightToes
    SpineDummy Spine
    Spine Spine1
    Spine1 HEadDummy LeftShoulder1Dummy RightShoulderDummy
    HEadDummy HEad
    LeftShoulder1Dummy LeftShoulder1
    LeftShoulder1 LeftArm
    LeftArm LeftForeArm
    LeftForeArm LeftHand
    RightShoulderDummy RightShoulder
    RightShoulder RightArm
    RightArm RightForeArm
    RightForeArm RightHand
    LeftUpLegDummy LeftUpLeg
    LeftUpLeg LeftLeg
    LeftLeg LeftFoot
    LeftFoot LeftToes
  end

:SAMPLES-PER-SECOND 30
:FRAME-RANGE 1-3549
:FULLY-SPECIFIED
:DEGREES
111
root  3.43189 38.7233 -40.1453 171.744 70.6249 174.175
RightUpLeg  15.1395 -2.77793 -5.21805
RightLeg  12.2958 4.65971 -2.18343
RightFoot  -21.8399 0.585962 7.98131
RightToes  -1.11029e-010 1.2921e-014 -6.02303e-014
Spine  2.71568 0.700703 4.39598
Spine1  2.32971 1.98638 -5.89563
HEad  11.0919 -31.4027 1.14682
LeftShoulder1  1.45495 -0.196331 -33.2652
LeftArm  12.7228 12.5114 -30.2135
LeftForeArm  3.26867 -11.3731 -14.0826
LeftHand  0.322182 -1.46969 -5.3388
RightShoulder  12.8249 21.4861 44.7193
RightArm  13.5026 20.3673 16.2299
RightForeArm  7.15587 29.9644 6.13819
RightHand  0.138096 4.93961 1.24837
LeftUpLeg  -18.7069 7.92056 7.12679
LeftLeg  1.77157 1.06 -2.51007
LeftFoot  -0.0379349 1.29938 -13.0838
LeftToes  -1.9349e-011 -1.19469e-011 -2.02219e-012
112
root  4.6842 38.4129 -41.4866 168.406 70.7316 171.4
RightUpLeg  17.2949 2.73672 -6.20364
RightLeg  15.0962 0.90223 -1.84992
RightFoot  -22.6595 1.02286 11.8415
RightToes  -1.11029e-010 1.2921e-014 -6.02303e-014
Spine  2.55425 0.575601 3.35001
Spine1  2.95736 1.91482 -6.21343
HEad  10.8036 -34.5321 1.09227
LeftShoulder1  1.51553 -0.330757 -33.4668
LeftArm  11.2166 11.6058 -29.9117
LeftForeArm  5.46591 -8.93103 -15.3736
LeftHand  0.31111 -1.27679 -5.32037
RightShoulder  12.5509 20.9913 44.6548
RightArm  13.4584 19.8821 16.2488
RightForeArm  9.39321 32.6478 6.68889
RightHand  0.153775 4.86618 1.43912
LeftUpLeg  -19.2213 8.37293 4.61871
LeftLeg  7.17273 1.54044 -1.95897
LeftFoot  6.98822 1.55243 -9.86898
LeftToes  -1.9349e-011 -1.19469e-011 -2.02219e-012
113
root  5.91319 38.0795 -42.7899 164.383 71.4852 167.83
RightUpLeg  17.3052 9.63709 -6.57244
RightLeg  21.8704 -3.11511 -1.59182
RightFoot  -22.3623 1.53328 17.3547
RightToes  -1.11029e-010 1.2921e-014 -6.02303e-014
Spine  3.20224 0.810087 1.54809
Spine1  2.56133 1.9097 -5.84519
HEad  11.1067 -37.8626 0.672985
LeftShoulder1  1.50129 -0.254971 -33.8795
LeftArm  10.2587 11.0989 -29.6947
LeftForeArm  6.19378 -6.92326 -16.3222
LeftHand  0.296244 -0.96284 -5.34581
RightShoulder  12.31 19.9845 45.7412
RightArm  15.3005 18.5658 15.6697
RightForeArm  11.2818 35.1057 7.23568
RightHand  0.176423 4.76175 1.71917
LeftUpLeg  -20.3944 12.7871 1.29315
LeftLeg  14.5044 -3.52834 -1.6439
LeftFoot  9.61004 1.28344 -7.25305
LeftToes  -1.9349e-011 -1.19469e-011 -2.02219e-012
114
root  6.98748 37.8533 -43.9192 157.395 71.7402 160.884
RightUpLeg  13.5979 9.90294 -10.4958
RightLeg  33.0367 -1.87836 -1.5592
RightFoot  -18.4171 1.43027 24.8088
RightToes  -1.11029e-010 1.2921e-014 -6.02303e-014
Spine  4.42629 1.03714 -1.87509
Spine1  2.20054 1.68756 -5.61924
HEad  10.7204 -41.1749 0.800837
LeftShoulder1  1.51444 -0.266251 -34.1061
LeftArm  8.25089 10.1474 -29.7296
LeftForeArm  6.79861 -4.56828 -17.1385
LeftHand  0.288504 -0.669759 -5.49011
RightShoulder  12.119 18.9175 47.24
RightArm  18.4509 16.8917 15.7121
RightForeArm  12.4763 35.318 7.22251
RightHand  0.139405 4.78292 1.29237
LeftUpLeg  -21.2781 15.5786 -2.13732
LeftLeg  21.6143 -5.34913 -1.9969
LeftFoot  4.61406 0.731339 -5.41692
LeftToes  -1.9349e-011 -1.19469e-011 -2.02219e-012
115
root  8.01937 37.9684 -45.0232 150.726 72.748 154.244
RightUpLeg  6.57859 10.4841 -13.4251
RightLeg  46.4404 -2.54828 -3.18574
RightFoot  -6.87059 -0.886253 21.2659
RightToes  -1.11029e-010 1.2921e-014 -6.02303e-014
Spine  5.14255 1.18804 -3.32829
Spine1  2.39017 1.80934 -6.40727
HEad  9.14871 -43.6028 1.09461
LeftShoulder1  1.61121 -0.528013 -33.9047
LeftArm  6.02178 9.17699 -30.1494
LeftForeArm  7.93795 -2.65969 -17.5223
LeftHand  0.298293 -0.566837 -5.78903
RightShoulder  12.137 18.4834 48.2699
RightArm  23.0051 15.0698 16.8404
RightForeArm  11.1778 32.4226 6.52745
RightHand  0.119885 5.22366 0.998963
LeftUpLeg  -19.4271 16.5511 -3.99553
LeftLeg  23.6716 -4.42384 -1.77679
LeftFoot  0.879209 0.523754 -4.94173
LeftToes  -1.9349e-011 -1.19469e-011 -2.02219e-012
116
root  9.03437 38.1378 -46.0121 144.459 74.1224 147.759
RightUpLeg  -1.67909 11.4115 -14.4451
RightLeg  57.8857 -4.51607 -8.16357
RightFoot  6.85563 -1.29733 8.38163
RightToes  -1.11029e-010 1.2921e-014 -6.02303e-014
Spine  5.42081 1.08134 -4.72552
Spine1  2.67405 1.58135 -6.62436
HEad  7.34364 -44.465 1.14578
LeftShoulder1  1.68731 -0.707975 -34.0054
LeftArm  6.77628 8.34971 -30.0902
LeftForeArm  8.03527 -2.35129 -17.671
LeftHand  0.312288 -0.625282 -5.9969
RightShoulder  12.4294 18.4152 49.5976
RightArm  30.9771 13.841 18.2692
RightForeArm  5.76092 27.3538 5.5909
RightHand  0.139413 5.48475 1.16779
LeftUpLeg  -17.3947 17.2261 -5.26523
LeftLeg  24.4157 -3.06526 -1.16689
LeftFoot  -2.20493 0.386861 -4.67553
LeftToes  -1.9349e-011 -1.19469e-011 -2.02219e-012
117
root  10.022 38.3674 -46.8725 140.288 75.4272 143.699
RightUpLeg  -7.6925 11.4617 -14.442
RightLeg  64.3891 -3.80252 -9.19072
RightFoot  3.12725 -1.25843 10.0588
RightToes  -1.11029e-010 1.2921e-014 -6.02303e-014
Spine  6.28457 0.698047 -5.83522
Spine1  2.3566 0.858944 -6.31176
HEad  6.43519 -44.7784 0.741307
LeftShoulder1  1.71142 -0.758661 -34.0941
LeftArm  9.49315 7.64287 -29.9705
LeftForeArm  7.43575 -2.94633 -17.7564
LeftHand  0.291269 -0.618459 -5.59679
RightShoulder  12.6017 18.1104 50.9903
RightArm  39.6083 12.9582 19.8574
RightForeArm  -0.123271 20.4152 6.8762
RightHand  0.160584 5.79845 1.33639
LeftUpLeg  -14.7623 18.8544 -5.51446
LeftLeg  24.108 -2.90367 -1.23381
LeftFoot  -4.44534 0.281115 -4.22229
LeftToes  -1.9349e-011 -1.19469e-011 -2.02219e-012
